<svg width="500" height="250" viewBox="0 0 500 250" fill="none" xmlns="http://www.w3.org/2000/svg">
<path d="M43 168L81.6037 101.034C86.2208 93.0252 97.7792 93.0252 102.396 101.034L141 168" stroke="black" stroke-width="24"/>
<path d="M234.479 166.218V132.721H200.802V166.218H182V82H200.802V115.022H234.479V82H253.4V166.218H234.479Z" fill="black"/>
<path d="M259.583 149.945C259.583 147.331 260.019 144.995 260.892 142.936C261.844 140.878 263.113 139.135 264.7 137.71C266.286 136.205 268.111 135.017 270.174 134.146C272.316 133.196 274.616 132.523 277.076 132.127L290.999 129.989C292.585 129.751 293.696 129.276 294.331 128.564C294.965 127.851 295.283 126.98 295.283 125.95C295.283 124.208 294.529 122.704 293.022 121.436C291.594 120.169 289.452 119.536 286.596 119.536C283.422 119.536 280.963 120.447 279.218 122.268C277.552 124.01 276.639 125.99 276.481 128.207L260.773 125C260.931 122.862 261.566 120.645 262.677 118.348C263.787 116.052 265.374 113.953 267.437 112.052C269.579 110.152 272.236 108.568 275.41 107.301C278.583 106.034 282.351 105.401 286.715 105.401C291.475 105.401 295.521 106.034 298.853 107.301C302.185 108.489 304.882 110.152 306.945 112.29C309.087 114.349 310.594 116.764 311.467 119.536C312.419 122.308 312.895 125.198 312.895 128.207V157.072C312.895 159.368 312.974 161.388 313.133 163.13C313.371 164.872 313.529 165.901 313.609 166.218H297.306C297.226 165.981 297.107 165.347 296.949 164.318C296.79 163.209 296.711 161.625 296.711 159.566C295.124 162.1 292.942 164.12 290.166 165.624C287.389 167.129 284.017 167.881 280.051 167.881C276.798 167.881 273.902 167.366 271.364 166.337C268.825 165.387 266.683 164.08 264.938 162.417C263.192 160.754 261.844 158.854 260.892 156.715C260.019 154.577 259.583 152.32 259.583 149.945ZM284.454 154.815C285.802 154.815 287.111 154.657 288.381 154.34C289.729 153.944 290.88 153.31 291.832 152.439C292.863 151.489 293.696 150.262 294.331 148.757C294.965 147.252 295.283 145.352 295.283 143.055V140.442L284.097 142.224C282.193 142.541 280.606 143.214 279.337 144.243C278.067 145.193 277.433 146.698 277.433 148.757C277.433 150.341 277.948 151.766 278.98 153.033C280.09 154.221 281.915 154.815 284.454 154.815Z" fill="black"/>
<path d="M358.476 166.218C358.318 165.664 358.199 164.753 358.119 163.486C358.04 162.14 358 161.071 358 160.279C356.414 162.813 354.113 164.674 351.098 165.862C348.163 166.971 345.188 167.525 342.173 167.525C338.603 167.525 335.39 166.931 332.534 165.743C329.758 164.476 327.417 162.813 325.513 160.754C323.609 158.616 322.142 156.161 321.11 153.39C320.158 150.618 319.682 147.648 319.682 144.481V107.182H337.77V140.68C337.77 143.53 338.524 145.946 340.031 147.925C341.618 149.905 344.038 150.895 347.29 150.895C350.305 150.895 352.685 149.984 354.43 148.163C356.255 146.262 357.167 143.808 357.167 140.798V107.182H375.256V155.646C375.256 158.339 375.335 160.675 375.494 162.655C375.652 164.555 375.771 165.743 375.851 166.218H358.476Z" fill="black"/>
<path d="M394.498 146.738C394.657 148.797 395.45 150.657 396.878 152.32C398.386 153.904 400.686 154.696 403.78 154.696C406.081 154.696 407.787 154.181 408.897 153.152C410.087 152.122 410.682 150.935 410.682 149.588C410.682 148.48 410.246 147.529 409.373 146.738C408.58 145.866 407.073 145.193 404.851 144.718L398.068 143.174C394.895 142.461 392.198 141.511 389.976 140.323C387.755 139.135 385.93 137.75 384.502 136.166C383.074 134.582 382.043 132.84 381.408 130.939C380.774 129.039 380.456 127.059 380.456 125C380.456 122.308 381.012 119.773 382.122 117.398C383.233 115.022 384.78 112.963 386.763 111.221C388.826 109.4 391.246 107.974 394.022 106.945C396.799 105.915 399.853 105.401 403.185 105.401C407.469 105.401 411.079 105.994 414.014 107.182C416.95 108.37 419.33 109.875 421.154 111.696C423.058 113.438 424.447 115.339 425.319 117.398C426.192 119.378 426.708 121.238 426.866 122.981L411.872 125.713C411.634 123.733 410.841 122.03 409.492 120.605C408.223 119.18 406.2 118.467 403.423 118.467C401.678 118.467 400.171 118.942 398.901 119.892C397.632 120.763 396.997 121.991 396.997 123.575C396.997 124.842 397.434 125.831 398.306 126.544C399.179 127.257 400.29 127.732 401.638 127.97L409.492 129.514C415.68 130.781 420.242 133.117 423.177 136.522C426.192 139.848 427.699 143.689 427.699 148.044C427.699 150.578 427.223 153.033 426.271 155.409C425.319 157.785 423.852 159.923 421.868 161.823C419.885 163.645 417.426 165.11 414.49 166.218C411.555 167.406 408.104 168 404.137 168C399.457 168 395.53 167.366 392.356 166.099C389.262 164.753 386.763 163.13 384.859 161.229C382.955 159.329 381.527 157.309 380.575 155.171C379.703 153.033 379.227 151.133 379.147 149.47L394.498 146.738Z" fill="black"/>
<path d="M431.605 155.052C431.605 153.39 431.922 151.845 432.557 150.42C433.192 148.915 434.064 147.609 435.175 146.5C436.286 145.391 437.555 144.52 438.983 143.887C440.49 143.253 442.077 142.936 443.743 142.936C445.409 142.936 446.956 143.253 448.384 143.887C449.891 144.52 451.2 145.391 452.311 146.5C453.501 147.609 454.413 148.915 455.048 150.42C455.683 151.845 456 153.39 456 155.052C456 156.715 455.683 158.299 455.048 159.804C454.413 161.229 453.501 162.496 452.311 163.605C451.2 164.714 449.891 165.585 448.384 166.218C446.956 166.931 445.409 167.287 443.743 167.287C442.077 167.287 440.49 166.931 438.983 166.218C437.555 165.585 436.286 164.714 435.175 163.605C434.064 162.496 433.192 161.229 432.557 159.804C431.922 158.299 431.605 156.715 431.605 155.052Z" fill="black"/>
</svg>
